#!OML:ASF F:\VICON\USERDATA\INSTALL\rory3\rory3.ASF
:FULLY-SPECIFIED
:DEGREES
996
root 7.80649 17.7858 3.18017 -354.721 -52.5569 -4.95461
lowerback 9.73912 2.31693 3.84445
upperback 0.700685 3.51679 0.796936
thorax -4.5454 1.65962 -1.79683
lowerneck -16.7754 -6.12331 -10.9017
upperneck 27.5108 -8.55409 8.99412
head 12.8448 -3.90181 3.90155
rclavicle -3.63776e-014 1.76918e-014
rhumerus -25.9906 -1.33945 -85.5985
rradius 35.6816
rwrist 2.83967
rhand -16.2474 9.66881
rfingers 7.12502
rthumb 9.96152 -20.0755
lclavicle -3.63776e-014 1.76918e-014
lhumerus -40.6915 2.90848 84.3171
lradius 34.2115
lwrist -7.16564
lhand -15.488 24.5734
lfingers 7.12502
lthumb 10.694 54.2813
rfemur 4.3019 2.34795 29.2841
rtibia 19.9173
rfoot -17.9855 -1.47075
rtoes 8.85673
lfemur -23.6934 -6.8833 -11.4135
ltibia 13.5068
lfoot -5.26357 5.08669
ltoes -21.0607
997
root 7.71527 17.7711 3.26793 -354.67 -52.5682 -4.93647
lowerback 9.61012 2.31933 3.93874
upperback 0.747472 3.51876 0.72255
thorax -4.41381 1.66197 -1.91892
lowerneck -16.9227 -6.13303 -10.8689
upperneck 27.5299 -8.59 9.07855
head 12.8908 -3.89915 3.92106
rclavicle 6.58226e-014 1.91827e-014
rhumerus -25.6893 -1.12342 -85.7179
rradius 35.9621
rwrist 2.69745
rhand -16.0465 9.73272
rfingers 7.12502
rthumb 10.1553 -20.0022
lclavicle 6.58226e-014 1.91827e-014
lhumerus -40.6509 2.95666 84.204
lradius 33.9226
lwrist -7.3474
lhand -15.7256 24.3584
lfingers 7.12502
lthumb 10.4649 54.0779
rfemur 4.77937 2.48151 29.2582
rtibia 19.8038
rfoot -18.0675 -1.46822
rtoes 9.1795
lfemur -23.6409 -7.05718 -11.3643
ltibia 11.8657
lfoot -5.51709 5.17082
ltoes -22.3379
998
root 7.62375 17.7562 3.3597 -354.728 -52.6599 -4.84116
lowerback 9.60486 2.31308 3.84908
upperback 0.743515 3.50018 0.705311
thorax -4.42033 1.65428 -1.88439
lowerneck -17.0878 -6.14765 -10.9257
upperneck 27.6574 -8.58947 9.08105
head 12.981 -3.90032 3.93235
rclavicle 1.0435e-013 -1.72943e-014
rhumerus -25.5248 -0.800061 -85.7941
rradius 36.2351
rwrist 2.57214
rhand -16.0027 9.86289
rfingers 7.12502
rthumb 10.1976 -19.8699
lclavicle 1.0435e-013 -1.72943e-014
lhumerus -40.7696 3.17585 84.1171
lradius 33.6745
lwrist -7.494
lhand -15.693 24.0317
lfingers 7.12502
lthumb 10.4963 53.7497
rfemur 5.31549 2.53991 29.1359
rtibia 19.6625
rfoot -18.2247 -1.38603
rtoes 9.40704
lfemur -23.5145 -7.30384 -11.3936
ltibia 10.5555
lfoot -5.73172 5.55136
ltoes -24.0553
999
root 7.53417 17.7412 3.45371 -354.758 -52.702 -4.79472
lowerback 9.6202 2.30467 3.8524
upperback 0.732017 3.4889 0.66711
thorax -4.43895 1.64785 -1.92562
lowerneck -17.1448 -6.17701 -10.9422
upperneck 27.7063 -8.61108 9.03511
head 13.0144 -3.91576 3.91324
rclavicle 1.90958e-014 -5.96354e-015
rhumerus -25.3417 -0.768436 -85.8652
rradius 36.3931
rwrist 2.59645
rhand -16.0198 10.0758
rfingers 7.12502
rthumb 10.181 -19.6579
lclavicle 1.90958e-014 -5.96354e-015
lhumerus -40.859 3.23963 84.0721
lradius 33.4066
lwrist -7.48289
lhand -15.5958 24.0217
lfingers 7.12502
lthumb 10.5901 53.7348
rfemur 5.84635 2.39319 29.0132
rtibia 19.4899
rfoot -18.2713 -1.35023
rtoes 7.59279
lfemur -23.3761 -6.79183 -11.7249
ltibia 9.60455
lfoot -5.81348 4.96893
ltoes -24.542
1000
root 7.44481 17.7296 3.54263 -354.574 -52.6328 -4.93406
lowerback 9.60339 2.26746 4.00558
upperback 0.677218 3.45497 0.613351
thorax -4.47654 1.62639 -2.06346
lowerneck -17.1207 -6.14995 -10.7618
upperneck 27.707 -8.61053 8.96959
head 12.9959 -3.90579 3.85689
rclavicle 7.10158e-014 -6.36111e-015
rhumerus -25.1902 -0.794608 -86.023
rradius 36.5663
rwrist 2.59097
rhand -16.032 10.0036
rfingers 7.12502
rthumb 10.1692 -19.7306
lclavicle 7.10158e-014 -6.36111e-015
lhumerus -40.8964 3.22533 83.9465
lradius 33.0679
lwrist -7.47508
lhand -15.4517 24.0744
lfingers 7.12502
lthumb 10.7291 53.7804
rfemur 6.32182 2.29561 29.052
rtibia 19.2574
rfoot -18.1831 -1.39459
rtoes 5.74494
lfemur -23.4481 -6.34733 -11.8723
ltibia 9.12489
lfoot -5.64755 4.19642
ltoes -24.4996
1001
root 7.35801 17.7205 3.62888 -354.417 -52.5206 -5.04375
lowerback 9.64426 2.23 4.11075
upperback 0.616162 3.42013 0.593452
thorax -4.55819 1.60426 -2.14233
lowerneck -17.1028 -6.12725 -10.6528
upperneck 27.6983 -8.61101 8.96302
head 12.9821 -3.89612 3.83568
rclavicle 1.62755e-014 6.26172e-015
rhumerus -25.0442 -0.811142 -86.1465
rradius 36.7072
rwrist 2.58494
rhand -16.1117 9.86779
rfingers 7.12502
rthumb 10.0924 -19.8702
lclavicle 1.62755e-014 6.26172e-015
lhumerus -40.9386 3.26362 83.8229
lradius 32.778
lwrist -7.66704
lhand -14.7459 24.3836
lfingers 7.12502
lthumb 11.4099 54.0531
rfemur 6.83975 2.28816 29.0914
rtibia 18.9664
rfoot -18.0096 -1.36913
rtoes 4.81955
lfemur -23.6172 -5.96549 -12.0753
ltibia 9.14608
lfoot -5.20325 3.51903
ltoes -23.551
1002
root 7.2689 17.7114 3.72079 -354.393 -52.4248 -5.12788
lowerback 9.71819 2.18817 4.1763
upperback 0.626262 3.37651 0.634592
thorax -4.59055 1.58074 -2.134
lowerneck -17.1951 -6.14825 -10.6816
upperneck 27.7877 -8.60508 8.88178
head 13.0349 -3.90398 3.81
rclavicle -2.00027e-015 -2.74323e-014
rhumerus -24.8626 -0.873522 -86.132
rradius 36.8037
rwrist 2.71618
rhand -16.2081 9.74849
rfingers 7.12502
rthumb 9.99938 -19.994
lclavicle -2.00027e-015 -2.74323e-014
lhumerus -40.9555 3.54336 83.7409
lradius 32.463
lwrist -7.94245
lhand -14.5042 24.6494
lfingers 7.12502
lthumb 11.6429 54.3059
rfemur 7.48883 2.33597 29.1294
rtibia 18.6618
rfoot -17.8181 -1.42587
rtoes 3.60658
lfemur -23.7304 -5.6015 -12.3462
ltibia 9.54859
lfoot -4.55931 3.0511
ltoes -22.1876
